<?xml version="1.0" encoding="UTF-8"?><svg id="Layer_2" xmlns="http://www.w3.org/2000/svg" viewBox="0 0 170.2 167.79"><defs><style>.cls-1{fill:#f3eee5;}</style></defs><g id="Layer_1-2"><path class="cls-1" d="M168.73,31.94c1.43-1.43,1.86-3.58,1.08-5.45-.77-1.87-2.6-3.09-4.62-3.09h-32.93l14.86-14.86c1.95-1.95,1.95-5.12,0-7.07-1.95-1.95-5.12-1.95-7.07,0l-21.94,21.94H27.5c-2.02,0-3.85,1.22-4.62,3.09-.77,1.87-.35,4.02,1.08,5.45l57.6,57.6c1.95,1.95,5.12,1.95,7.07,0l42.3-42.3c1.43-1.43,1.86-3.58,1.08-5.45-.77-1.87-2.6-3.09-4.62-3.09h-10.43l5.3-5.3h30.86l-63.91,63.91c-.94,.94-1.46,2.21-1.46,3.54v43.94c0,1.89,1.07,3.62,2.76,4.47l17.06,8.53H62.63l17.06-8.53c1.69-.85,2.76-2.58,2.76-4.47v-43.94c0-1.33-.53-2.6-1.46-3.54L8.54,24.86c-1.95-1.95-5.12-1.95-7.07,0-1.95,1.95-1.95,5.12,0,7.07L72.45,102.92v38.78l-33.24,16.62c-2.07,1.04-3.16,3.36-2.63,5.62s2.55,3.85,4.87,3.85h87.3c2.32,0,4.33-1.59,4.87-3.85s-.56-4.58-2.63-5.62l-33.24-16.62v-38.78L168.73,31.94Zm-83.63,46.99L39.57,33.4H108.13l-5.3,5.3h-37.53c-2.02,0-3.85,1.22-4.62,3.09-.77,1.87-.35,4.02,1.08,5.45l19.8,19.8c1.95,1.95,5.12,1.95,7.07,0l18.34-18.34h8.36l-30.23,30.23Zm7.73-30.23l-7.73,7.73-7.73-7.73h15.46Z"/></g></svg>