<?xml version="1.0" encoding="UTF-8"?><svg id="Layer_2" xmlns="http://www.w3.org/2000/svg" viewBox="0 0 130.45 97.59"><defs><style>.cls-1{fill:#fff;}</style></defs><g id="Layer_1-2"><g><path class="cls-1" d="M130.45,13.63s0-.07-.01-.1c0-.12-.02-.24-.04-.36-.01-.11-.03-.21-.05-.31-.03-.11-.06-.22-.1-.32-.04-.1-.07-.21-.11-.31-.04-.1-.1-.19-.15-.28-.06-.1-.11-.19-.17-.28-.06-.09-.13-.17-.21-.25-.07-.08-.14-.17-.22-.24-.08-.08-.17-.14-.25-.21-.09-.07-.17-.14-.26-.19-.09-.06-.19-.11-.28-.15-.1-.05-.2-.1-.31-.15-.1-.04-.2-.06-.3-.09-.12-.03-.23-.07-.36-.09-.03,0-.06-.02-.1-.02-.08-.01-.16,0-.24,0-.08,0-.16-.02-.24-.02H30.71l-1.04-7.3s-.02-.06-.02-.1c-.02-.12-.05-.24-.09-.36-.03-.1-.06-.2-.09-.3-.04-.11-.09-.2-.14-.31-.05-.1-.1-.2-.16-.29-.06-.09-.12-.17-.18-.25-.07-.09-.14-.19-.22-.27-.07-.07-.14-.13-.22-.2-.09-.08-.18-.16-.28-.23-.08-.06-.16-.1-.25-.15-.11-.06-.21-.12-.32-.17-.09-.04-.18-.07-.27-.1-.12-.04-.24-.08-.36-.11-.09-.02-.19-.03-.28-.04-.13-.02-.26-.04-.39-.04-.03,0-.06,0-.1,0H3.41C1.53,0,0,1.53,0,3.41s1.53,3.41,3.41,3.41H23.34l1.04,7.3,5.84,40.88,3.34,23.37H118.28c1.88,0,3.41-1.53,3.41-3.41s-1.53-3.41-3.41-3.41H39.47l-1.95-13.63H121.2s0,0,0,0c.22,0,.44-.03,.65-.07,.07-.01,.13-.04,.2-.05,.14-.04,.28-.07,.41-.13,.08-.03,.16-.07,.23-.11,.11-.05,.22-.11,.33-.18,.08-.05,.15-.1,.22-.16,.1-.07,.19-.15,.28-.23,.07-.06,.13-.13,.19-.19,.08-.09,.16-.18,.23-.28,.05-.07,.1-.15,.15-.22,.06-.1,.12-.21,.17-.31,.04-.09,.08-.17,.12-.26,.04-.11,.07-.22,.1-.34,.03-.1,.05-.19,.07-.29,0-.04,.02-.07,.02-.1l5.84-40.88c.01-.08,0-.16,0-.24,0-.08,.02-.16,.02-.24Zm-12.2,37.47H36.55l-4.87-34.07H123.11l-4.87,34.07Z"/><circle class="cls-1" cx="46.74" cy="91.3" r="6.29"/><circle class="cls-1" cx="108.06" cy="91.3" r="6.29"/></g></g></svg>